<svg width="95" height="38" viewBox="0 0 95 38" fill="none" xmlns="http://www.w3.org/2000/svg">
<path d="M13.6136 35.9988L13.6065 32.4648H11.7427V31.7767H16.4308V32.4648H14.5598V35.9988H13.6136ZM18.9062 35.9988V31.7839H23.3649V32.472H19.8524V33.4612H22.5333V34.1709H19.8524V35.3106H23.3935L23.6803 35.9199C23.6803 35.939 23.6157 35.9582 23.4867 35.9773C23.3577 35.9916 23.1355 35.9988 22.8201 35.9988H18.9062ZM27.3907 35.9988C27.0514 35.9988 26.7862 35.951 26.595 35.8554C26.4039 35.7598 26.2701 35.6165 26.1936 35.4253C26.1172 35.2342 26.0789 34.9976 26.0789 34.7157V33.1171C26.0789 32.6584 26.1817 32.3215 26.3872 32.1064C26.5926 31.8866 26.9272 31.7767 27.3907 31.7767H29.5484C29.8781 31.7767 30.129 31.7958 30.301 31.834C30.4778 31.8675 30.5662 31.9033 30.5662 31.9416L30.4229 32.5365C30.3416 32.5222 30.1003 32.5078 29.6989 32.4935C29.3022 32.4744 28.724 32.4648 27.9642 32.4648H27.5986C27.2163 32.4648 27.0251 32.6345 27.0251 32.9738V34.8017C27.0251 34.9642 27.0658 35.0908 27.147 35.1816C27.233 35.2676 27.3835 35.3106 27.5986 35.3106H27.8925C28.6858 35.3106 29.2999 35.3035 29.7347 35.2891C30.1744 35.27 30.4468 35.2509 30.5519 35.2318L30.8458 35.7049C30.8458 35.7288 30.8052 35.7646 30.7239 35.8124C30.6475 35.8602 30.5041 35.9032 30.2938 35.9414C30.0836 35.9797 29.7801 35.9988 29.3835 35.9988H27.3907ZM33.318 35.9988V31.7839H34.2642V33.5329H37.0742V31.7839H38.0204V35.9988H37.0742V34.2211H34.2642V35.9988H33.318ZM40.9981 35.9988V32.3573L40.9264 31.7839H41.9586L44.3958 34.3357L44.6754 34.7228H44.7543V31.7839H45.7005V35.9988H44.7901L42.2955 33.4039L42.016 33.067H41.9443V35.9988H40.9981ZM49.8449 35.9988C49.5104 35.9988 49.2476 35.951 49.0564 35.8554C48.8653 35.7598 48.7291 35.6165 48.6478 35.4253C48.5714 35.2342 48.5331 34.9976 48.5331 34.7157V33.0598C48.5331 32.7826 48.5714 32.5509 48.6478 32.3645C48.7243 32.1733 48.8581 32.03 49.0493 31.9344C49.2404 31.834 49.5056 31.7839 49.8449 31.7839H51.9381C52.2726 31.7839 52.533 31.834 52.7194 31.9344C52.9106 32.03 53.0444 32.1733 53.1208 32.3645C53.2021 32.5509 53.2427 32.7826 53.2427 33.0598V34.7157C53.2427 35.1362 53.1495 35.4564 52.9631 35.6762C52.7767 35.8913 52.4351 35.9988 51.9381 35.9988H49.8449ZM50.0528 35.3106H51.7374C51.9142 35.3106 52.0504 35.2652 52.1459 35.1744C52.2463 35.0836 52.2965 34.9594 52.2965 34.8017V32.9738C52.2965 32.8352 52.2463 32.7181 52.1459 32.6225C52.0456 32.5222 51.9094 32.472 51.7374 32.472H50.0528C49.8808 32.472 49.7422 32.5174 49.6371 32.6082C49.5319 32.699 49.4794 32.8209 49.4794 32.9738V34.8017C49.4794 34.9642 49.5295 35.0908 49.6299 35.1816C49.735 35.2676 49.876 35.3106 50.0528 35.3106ZM56.0732 35.9988L56.1449 35.4253V31.7839H57.0911V35.3106H60.0588L60.3455 35.9199C60.3455 35.939 60.281 35.9582 60.152 35.9773C60.0229 35.9916 59.8007 35.9988 59.4853 35.9988H56.0732ZM63.9837 35.9988C63.6492 35.9988 63.3864 35.951 63.1952 35.8554C63.0041 35.7598 62.8679 35.6165 62.7866 35.4253C62.7102 35.2342 62.6719 34.9976 62.6719 34.7157V33.0598C62.6719 32.7826 62.7102 32.5509 62.7866 32.3645C62.8631 32.1733 62.9969 32.03 63.188 31.9344C63.3792 31.834 63.6444 31.7839 63.9837 31.7839H66.0768C66.4114 31.7839 66.6718 31.834 66.8582 31.9344C67.0493 32.03 67.1831 32.1733 67.2596 32.3645C67.3408 32.5509 67.3815 32.7826 67.3815 33.0598V34.7157C67.3815 35.1362 67.2883 35.4564 67.1019 35.6762C66.9155 35.8913 66.5738 35.9988 66.0768 35.9988H63.9837ZM64.1916 35.3106H65.8761C66.053 35.3106 66.1892 35.2652 66.2847 35.1744C66.3851 35.0836 66.4353 34.9594 66.4353 34.8017V32.9738C66.4353 32.8352 66.3851 32.7181 66.2847 32.6225C66.1844 32.5222 66.0482 32.472 65.8761 32.472H64.1916C64.0196 32.472 63.881 32.5174 63.7758 32.6082C63.6707 32.699 63.6181 32.8209 63.6181 32.9738V34.8017C63.6181 34.9642 63.6683 35.0908 63.7687 35.1816C63.8738 35.2676 64.0148 35.3106 64.1916 35.3106ZM71.4521 35.9988C71.1128 35.9988 70.8476 35.951 70.6565 35.8554C70.4653 35.7598 70.3315 35.6165 70.255 35.4253C70.1786 35.2342 70.1403 34.9976 70.1403 34.7157V33.1171C70.1403 32.6584 70.2431 32.3215 70.4486 32.1064C70.6541 31.8866 70.9886 31.7767 71.4521 31.7767H73.6098C73.9395 31.7767 74.1904 31.7958 74.3624 31.834C74.5393 31.8675 74.6277 31.9033 74.6277 31.9416L74.4843 32.5365C74.4031 32.5222 74.1617 32.5078 73.7603 32.4935C73.3637 32.4744 72.7854 32.4648 72.0256 32.4648H71.66C71.2777 32.4648 71.0865 32.6345 71.0865 32.9738V34.8017C71.0865 34.9642 71.1272 35.0908 71.2084 35.1816C71.2944 35.2676 71.445 35.3106 71.66 35.3106H71.9539C72.4127 35.3106 72.7998 35.3082 73.1152 35.3035C73.4306 35.2939 73.691 35.2867 73.8965 35.282V34.3071L73.4664 34.3142L72.5274 34.3859V33.6834H74.8355V35.6977L74.9072 35.8482C74.9072 35.8865 74.8069 35.9223 74.6062 35.9558C74.4054 35.9844 74.0661 35.9988 73.5883 35.9988H71.4521ZM77.6664 35.9988V31.7839H78.6126V35.9988H77.6664ZM81.5157 35.9988V31.7839H85.9744V32.472H82.4619V33.4612H85.1428V34.1709H82.4619V35.3106H86.003L86.2898 35.9199C86.2898 35.939 86.2253 35.9582 86.0962 35.9773C85.9672 35.9916 85.745 35.9988 85.4296 35.9988H81.5157ZM89.563 35.9988C89.238 35.9988 88.9991 35.9844 88.8461 35.9558C88.6932 35.9271 88.6168 35.8936 88.6168 35.8554L88.9035 35.2318C89.0134 35.2509 89.2858 35.27 89.7207 35.2891C90.1603 35.3035 90.7624 35.3106 91.5271 35.3106H91.6633C91.8687 35.3106 92.0145 35.2748 92.1005 35.2031C92.1865 35.1266 92.2295 35 92.2295 34.8232V34.6798C92.2295 34.5126 92.1937 34.3931 92.122 34.3214C92.0551 34.2497 91.9022 34.2139 91.6633 34.2139H90.0002C89.5176 34.2139 89.1663 34.1255 88.9465 33.9487C88.7267 33.7671 88.6168 33.4732 88.6168 33.067V32.9523C88.6168 32.742 88.655 32.5485 88.7314 32.3717C88.8127 32.1948 88.9489 32.0539 89.14 31.9487C89.3312 31.8388 89.594 31.7839 89.9285 31.7839H91.8783C92.2033 31.7839 92.4661 31.8006 92.6668 31.834C92.8675 31.8675 92.9679 31.9033 92.9679 31.9416L92.8245 32.5437C92.7003 32.5294 92.4183 32.515 91.9787 32.5007C91.539 32.4816 90.9488 32.472 90.2081 32.472L90.1293 32.4648C89.9094 32.4648 89.7613 32.5102 89.6848 32.601C89.6084 32.6871 89.5677 32.797 89.563 32.9308V33.0526C89.563 33.2103 89.606 33.3298 89.692 33.411C89.7828 33.4875 89.9309 33.5257 90.1364 33.5257H91.7278C92.0336 33.5257 92.2941 33.5568 92.5091 33.6189C92.7242 33.681 92.889 33.7957 93.0037 33.963C93.1184 34.1255 93.1758 34.3668 93.1758 34.687V34.8017C93.1758 35.1601 93.0826 35.4492 92.8962 35.669C92.7146 35.8889 92.3968 35.9988 91.9428 35.9988H89.563Z" fill="#1CBED2"/>
<path d="M24.1267 3.82788V8.46769H16.935V13.2235H12.1792V3.82788H24.1267Z" fill="#00529C"/>
<path d="M81.3127 3.82788V8.46769H74.121V13.2235H69.3652V3.82788H81.3127Z" fill="#00529C"/>
<path d="M24.2427 27.491V22.8512H17.051V18.0954H12.2952V27.491H24.2427Z" fill="#00529C"/>
<path d="M81.4287 27.491V22.8512H74.237V18.0954H69.4812V27.491H81.4287Z" fill="#00529C"/>
<path d="M25.4031 3.71191L33.9867 15.5434L25.4031 27.4909H31.3188L37.0026 19.8352L42.6863 27.7229H48.3701L39.9025 15.5434L48.3701 3.71191H42.6863L37.0026 11.3676L31.6668 3.71191H25.4031Z" fill="#00529C"/>
<rect x="16.9351" y="13.2234" width="4.87179" height="4.87179" fill="#10BED2"/>
<rect x="74.1206" y="13.2234" width="4.87179" height="4.87179" fill="#00529C"/>
<rect x="7.42358" y="13.2234" width="4.87179" height="4.87179" fill="#00529C"/>
<rect x="2.55176" y="8.35181" width="4.87179" height="4.87179" fill="#10BED2"/>
<rect y="13.2234" width="2.55189" height="2.55189" fill="#00529C"/>
<rect x="4.87158" y="20.415" width="2.55189" height="2.55189" fill="#10BED2"/>
<mask id="mask0_71_1733" style="mask-type:alpha" maskUnits="userSpaceOnUse" x="45" y="0" width="26" height="31">
<path d="M69.713 5.56777L64.6092 12.0635V19.8352L70.293 24.823V26.9109L59.8534 30.6227L49.4139 26.9109L45.238 17.0513L49.8778 6.37973L59.2734 0L69.713 5.56777Z" fill="white"/>
</mask>
<g mask="url(#mask0_71_1733)">
<path fill-rule="evenodd" clip-rule="evenodd" d="M59.8536 28.0707C66.6442 28.0707 72.1491 22.5658 72.1491 15.7752C72.1491 8.98461 66.6442 3.47974 59.8536 3.47974C53.063 3.47974 47.5581 8.98461 47.5581 15.7752C47.5581 22.5658 53.063 28.0707 59.8536 28.0707ZM59.8536 23.1989C63.9536 23.1989 67.2773 19.8752 67.2773 15.7752C67.2773 11.6752 63.9536 8.35153 59.8536 8.35153C55.7536 8.35153 52.4299 11.6752 52.4299 15.7752C52.4299 19.8752 55.7536 23.1989 59.8536 23.1989Z" fill="#00529C"/>
</g>
<path d="M95 22.7351V27.6069H82.8206V3.71191H87.6924V22.7351H95Z" fill="#00529C"/>
</svg>
